# File created by Blade
# Date/Time:  Mon Nov 18 18:33:23 2013
# Frame Rate: 100.000 fps
#------------------------------------------------------
:FULLY-SPECIFIED
:DEGREES
169
root 53.440340 -2.269883 51.802385 -1.858453 1.758647 -124.519341
Spine 12.319622 -1.284371 -0.370093
Spine1 3.074267 1.073247 -1.019661
Spine2 0.509347 -2.001660 -1.753430
NeckDummy 0.001010 -0.053753 -0.014924 -1.603698 1.472696 -0.648688
Neck 15.322683 -0.496910 26.569137
Head -0.286328 0.329374 0.227035 -34.700466 -3.969887 -0.599803
LeftShoulderDummy -0.067201 -0.044751 0.042865 -1.581024 1.349982 -0.427761
LeftShoulder 7.518646 -4.064134 14.308600
LeftArm 20.029925 48.540999 28.673046
LeftForeArm 89.860248
LeftForeArmRoll -35.632420
LeftHand -9.328708 5.525274 -4.350215
LeftHandThumb1 16.310462 12.712416
LeftHandIndex1 14.726424 43.726632
LeftHandPinky1 14.008418 48.525936
RightShoulderDummy -0.042024 -0.023821 0.078258 -1.624419 -1.472793 0.645094
RightShoulder 5.049122 5.446332 16.824245
RightArm -38.207257 69.952134 -2.653309
RightForeArm 113.085245
RightForeArmRoll 2.870445
RightHand -17.575295 -16.410300 12.320241
RightHandThumb1 -1.034443 13.760835
RightHandIndex1 14.110283 60.311048
RightHandPinky1 18.936255 68.764343
LeftUpLeg 5.955686 19.481555 -30.351145
LeftLeg 48.956718
LeftFoot 0.565706 -1.025327 -0.660752 -11.842352 10.878099 -10.947260
LeftToeBase -1.897220
RightUpLeg 14.101036 14.255644 -25.464066
RightLeg 60.870657
RightFoot -0.360450 0.544489 0.322155 -0.398206 4.381782 -25.398367
RightToeBase -4.641091
170
root 53.452614 -2.293170 51.845191 -1.784655 1.769408 -124.616569
Spine 12.397681 -1.250046 -0.395271
Spine1 3.083761 1.088417 -1.059257
Spine2 0.441179 -1.998551 -1.721795
NeckDummy 0.000835 -0.055628 -0.012545 -1.604338 1.448586 -0.648636
Neck 15.143521 -0.653721 26.699153
Head -0.287451 0.331830 0.225400 -34.751187 -3.942784 -0.594319
LeftShoulderDummy -0.067951 -0.047052 0.045270 -1.582800 1.326380 -0.426380
LeftShoulder 7.387560 -4.032594 14.348459
LeftArm 19.979700 48.618939 28.568331
LeftForeArm 90.024670
LeftForeArmRoll -35.409482
LeftHand -9.449478 5.732823 -4.326776
LeftHandThumb1 16.473683 12.494253
LeftHandIndex1 14.437013 43.829872
LeftHandPinky1 13.776744 48.362632
RightShoulderDummy -0.042116 -0.025805 0.080382 -1.624741 -1.449558 0.645856
RightShoulder 5.362452 5.293721 16.894704
RightArm -38.524299 69.526566 -2.760348
RightForeArm 113.096188
RightForeArmRoll 2.980148
RightHand -17.617265 -16.421010 12.494456
RightHandThumb1 -1.033332 13.840001
RightHandIndex1 13.949979 60.316898
RightHandPinky1 18.829316 68.896412
LeftUpLeg 6.060960 19.524703 -30.542746
LeftLeg 49.145611
LeftFoot 0.560972 -1.028294 -0.662454 -11.802475 10.848146 -11.055612
LeftToeBase -1.897542
RightUpLeg 14.126616 14.488616 -26.014017
RightLeg 61.387655
RightFoot -0.355628 0.555295 0.346667 -0.161195 4.175209 -24.743795
RightToeBase -5.218778
171
root 53.461279 -2.319628 51.884518 -1.741429 1.725506 -124.667023
Spine 12.459442 -1.175652 -0.425081
Spine1 3.093183 1.129328 -1.103387
Spine2 0.460639 -1.979560 -1.684378
NeckDummy 0.000559 -0.056262 -0.013171 -1.621282 1.419868 -0.640703
Neck 14.945579 -0.823559 26.777108
Head -0.286901 0.330359 0.228147 -34.711563 -3.983303 -0.583132
LeftShoulderDummy -0.067407 -0.047221 0.045850 -1.600044 1.298093 -0.419939
LeftShoulder 7.299530 -4.047179 14.369707
LeftArm 19.959599 48.660778 28.526007
LeftForeArm 90.176590
LeftForeArmRoll -35.492101
LeftHand -9.413675 5.778115 -4.359502
LeftHandThumb1 16.429539 12.398745
LeftHandIndex1 14.357368 43.692390
LeftHandPinky1 13.769066 48.255747
RightShoulderDummy -0.041571 -0.026723 0.079918 -1.641654 -1.421789 0.639400
RightShoulder 5.514569 5.158482 16.930215
RightArm -39.398770 69.114729 -3.469586
RightForeArm 113.140847
RightForeArmRoll 2.971537
RightHand -17.668531 -16.245184 12.388320
RightHandThumb1 -0.996304 13.742445
RightHandIndex1 14.133433 60.154270
RightHandPinky1 19.129491 68.667469
LeftUpLeg 6.152548 19.611527 -30.731974
LeftLeg 49.314891
LeftFoot 0.562274 -1.025761 -0.675649 -11.705423 10.747764 -11.139643
LeftToeBase -1.891799
RightUpLeg 14.241804 14.691656 -26.423070
RightLeg 61.825029
RightFoot -0.352033 0.572053 0.359485 -0.076260 3.924110 -24.369907
RightToeBase -5.532923
172
root 53.477379 -2.345936 51.914017 -1.695037 1.659989 -124.780568
Spine 12.531507 -1.123684 -0.426127
Spine1 3.115331 1.167268 -1.090679
Spine2 0.426373 -1.927983 -1.700816
NeckDummy 0.000428 -0.061387 -0.011878 -1.610213 1.427311 -0.627567
Neck 14.773662 -0.992562 26.894984
Head -0.291064 0.332813 0.227300 -34.742660 -4.012973 -0.616542
LeftShoulderDummy -0.067411 -0.052447 0.046257 -1.589716 1.305844 -0.406171
LeftShoulder 7.328016 -4.035069 14.352823
LeftArm 20.102745 48.661667 28.564598
LeftForeArm 90.322108
LeftForeArmRoll -35.483118
LeftHand -9.509157 5.666793 -4.485049
LeftHandThumb1 16.301928 12.502602
LeftHandIndex1 14.633614 43.579206
LeftHandPinky1 13.913769 48.277570
RightShoulderDummy -0.040460 -0.032439 0.081066 -1.630249 -1.430492 0.629422
RightShoulder 5.652429 5.065741 16.956367
RightArm -40.326500 68.771426 -4.195364
RightForeArm 113.156547
RightForeArmRoll 2.894052
RightHand -17.579879 -16.463307 12.426976
RightHandThumb1 -1.333347 14.020536
RightHandIndex1 14.053538 60.187218
RightHandPinky1 19.175333 68.748165
LeftUpLeg 6.353034 19.807374 -30.898713
LeftLeg 49.464255
LeftFoot 0.565852 -1.027139 -0.693960 -11.423855 10.603863 -11.163425
LeftToeBase -2.046800
RightUpLeg 14.269366 14.751712 -26.775643
RightLeg 62.166512
RightFoot -0.357773 0.580589 0.364828 -0.018298 3.738607 -24.095086
RightToeBase -5.784021
